<svg id="Laag_1" data-name="Laag 1" xmlns="http://www.w3.org/2000/svg" viewBox="0 0 500 164"><title>Tekengebied 1</title><path d="M126.65,151.89h-7.28V133.16h7c3.26,0,5.52,1.87,5.52,5a4.28,4.28,0,0,1-2.75,4.1,4.54,4.54,0,0,1,3,4.44C132.23,150.1,130,151.89,126.65,151.89Zm-.39-16.94h-4.9v6.5h4.9c2.08,0,3.68-1,3.68-3.26S128.34,134.95,126.26,134.95Zm.21,8.29h-5.11v6.86h5.11c2.32,0,3.75-1.34,3.75-3.44S128.79,143.23,126.47,143.23Z" style="fill:#e95a0c"/><path d="M155.46,150.1a6.85,6.85,0,0,1-9.57,0c-1.77-1.76-1.77-3.61-1.77-7.57s0-5.82,1.77-7.58a6.89,6.89,0,0,1,9.57,0c1.77,1.77,1.77,3.6,1.77,7.58S157.23,148.34,155.46,150.1Zm-1.55-14a4.5,4.5,0,0,0-3.22-1.34,4.55,4.55,0,0,0-3.25,1.34c-1.17,1.21-1.31,2.48-1.31,6.4s.14,5.18,1.31,6.39a4.55,4.55,0,0,0,3.25,1.34,4.5,4.5,0,0,0,3.22-1.34c1.18-1.21,1.32-2.48,1.32-6.39S155.09,137.34,153.91,136.13Z" style="fill:#e95a0c"/><path d="M180.46,150.1a6.86,6.86,0,0,1-9.57,0c-1.77-1.76-1.77-3.61-1.77-7.57s0-5.82,1.77-7.58a6.89,6.89,0,0,1,9.57,0c1.76,1.77,1.76,3.6,1.76,7.58S182.22,148.34,180.46,150.1Zm-1.55-14a4.58,4.58,0,0,0-6.47,0c-1.18,1.21-1.32,2.48-1.32,6.4s.14,5.18,1.32,6.39a4.57,4.57,0,0,0,6.47,0c1.18-1.21,1.32-2.48,1.32-6.39S180.09,137.34,178.91,136.13Z" style="fill:#e95a0c"/><path d="M199.65,152a8.14,8.14,0,0,1-6.43-2.48l1.37-1.36a6.43,6.43,0,0,0,5.11,2.06c2.73,0,4.41-1.29,4.41-3.48a3,3,0,0,0-.89-2.34,4,4,0,0,0-2.45-.9l-2.18-.34a6.73,6.73,0,0,1-3.45-1.42,4.38,4.38,0,0,1-1.42-3.5c0-3.18,2.29-5.28,6-5.28a7.53,7.53,0,0,1,5.58,2L204,136.34a5.9,5.9,0,0,0-4.36-1.61c-2.51,0-4,1.4-4,3.46a2.74,2.74,0,0,0,.85,2.18,5.61,5.61,0,0,0,2.52,1l2.06.31a6,6,0,0,1,3.42,1.31,4.7,4.7,0,0,1,1.58,3.71C206.12,150,203.54,152,199.65,152Z" style="fill:#e95a0c"/><path d="M223.69,134.95v16.94h-2V134.95h-5.41v-1.79h12.83v1.79Z" style="fill:#e95a0c"/><path d="M260,144.16v7.73h-2v-7.73l-5.57-11h2.16l4.42,9,4.37-9h2.15Z" style="fill:#e95a0c"/><path d="M286.74,150.1a6.85,6.85,0,0,1-9.57,0c-1.77-1.76-1.77-3.61-1.77-7.57s0-5.82,1.77-7.58a6.89,6.89,0,0,1,9.57,0c1.76,1.77,1.76,3.6,1.76,7.58S288.5,148.34,286.74,150.1Zm-1.55-14a4.6,4.6,0,0,0-6.48,0c-1.18,1.21-1.31,2.48-1.31,6.4s.13,5.18,1.31,6.39a4.58,4.58,0,0,0,6.48,0c1.18-1.21,1.31-2.48,1.31-6.39S286.37,137.34,285.19,136.13Z" style="fill:#e95a0c"/><path d="M307.37,152a6.18,6.18,0,0,1-6.52-6.34V133.16h2v12.39a4.54,4.54,0,1,0,9.07,0V133.16h2v12.55A6.19,6.19,0,0,1,307.37,152Z" style="fill:#e95a0c"/><path d="M337.73,151.89l-4.26-8.31H329v8.31h-2V133.16h7.18c3.26,0,5.54,2,5.54,5.21a4.86,4.86,0,0,1-4.06,5l4.44,8.5ZM334,134.95h-5v6.87h5c2.18,0,3.74-1.14,3.74-3.42S336.16,134.95,334,134.95Z" style="fill:#e95a0c"/><path d="M372.07,134.95v16.94h-2V134.95h-5.42v-1.79h12.83v1.79Z" style="fill:#e95a0c"/><path d="M398.23,151.89l-1.5-4.23h-8.19L387,151.89h-2.13l6.89-18.73h1.68l6.86,18.73ZM392.67,136l-3.53,9.89h7Z" style="fill:#e95a0c"/><path d="M411.28,151.89V133.16h2V150.1h9.58v1.79Z" style="fill:#e95a0c"/><path d="M434.25,151.89V133.16h11.63v1.79h-9.64v6.6h8.21v1.78h-8.21v6.77h9.64v1.79Z" style="fill:#e95a0c"/><path d="M469.88,151.89l-10-15v15h-2V133.16h1.9l9.95,15v-15h2v18.73Z" style="fill:#e95a0c"/><path d="M490.59,134.95v16.94h-2V134.95h-5.42v-1.79H496v1.79Z" style="fill:#e95a0c"/><path d="M59,49q-7.5-8.1-21.76-8.1a50.71,50.71,0,0,0-16.57,2.68,77.23,77.23,0,0,0-14.93,7L13.41,65a66.38,66.38,0,0,1,10.1-4.9A26.84,26.84,0,0,1,33,58.3q5.94,0,8.62,2.9a12.21,12.21,0,0,1,3,7.8Q22.77,71.22,13,77.76a21,21,0,0,0-8.34,10.4,22.1,22.1,0,0,0-1.46,7.73,24,24,0,0,0,1.56,8.76,22,22,0,0,0,4.38,7.06,19.65,19.65,0,0,0,6.84,4.75A23,23,0,0,0,25,118.17a25.73,25.73,0,0,0,11.51-2.6,46.3,46.3,0,0,0,10-6.76H47l1.63,7.58H66.45V74.19Q66.45,57.11,59,49ZM44.62,95A31.21,31.21,0,0,1,39,99.6a12.33,12.33,0,0,1-6.54,1.63,10.11,10.11,0,0,1-6.17-1.7A6.13,6.13,0,0,1,24,94.25c0-2.31,1.22-4.29,3.14-6.09a10.94,10.94,0,0,1,1.31-1.34q4.46-3.12,16.2-4.75V95Z" style="fill:#1d1d1b"/><polygon points="137.98 88.16 128.27 73.01 154.12 42.69 130.35 42.69 107.02 71.97 106.43 71.97 100.1 12.23 78.85 12.23 85.18 88.16 84.81 139.62 106.07 152.04 106.43 98.27 115.39 88.16 116.05 88.16 132.43 116.39 156.05 116.39 137.98 88.16" style="fill:#1d1d1b"/><path d="M210.28,95.15a35.73,35.73,0,0,1-5.94,3.71,16,16,0,0,1-7.28,1.63,14.69,14.69,0,0,1-11.81-5.65,19,19,0,0,1-3.51-6.68,29.6,29.6,0,0,1-1.17-8.62q0-9.66,4.61-15.3t12.63-5.65q5,0,10.25,4.31l10-13.52a27.26,27.26,0,0,0-9.21-6.17,31.63,31.63,0,0,0-12.33-2.3,41.47,41.47,0,0,0-14.56,2.6A36.55,36.55,0,0,0,169.64,51a35.57,35.57,0,0,0-8.39,12.11,40.92,40.92,0,0,0-3.12,16.41,51.51,51.51,0,0,0,.7,8.62A39.28,39.28,0,0,0,161,96a34.74,34.74,0,0,0,7.73,12.11,33.39,33.39,0,0,0,11.51,7.5,38.9,38.9,0,0,0,27,.37,34.42,34.42,0,0,0,11.89-7Z" style="fill:#1d1d1b"/><path d="M287.55,62.23A31.57,31.57,0,0,0,281.68,51a27.12,27.12,0,0,0-9.81-7.43,32.89,32.89,0,0,0-13.74-2.68,32.52,32.52,0,0,0-12.93,2.68,34,34,0,0,0-11.07,7.65,38.31,38.31,0,0,0-7.8,12.19,41.89,41.89,0,0,0-3,16.12,50.76,50.76,0,0,0,.7,8.62,38.39,38.39,0,0,0,2.12,7.73,34.58,34.58,0,0,0,7.87,12.1,33.83,33.83,0,0,0,11.89,7.58,41.15,41.15,0,0,0,14.71,2.6,44.08,44.08,0,0,0,13.6-2.23,48.32,48.32,0,0,0,12.56-6.09l-7.29-13.23a30.29,30.29,0,0,1-15.89,4.9,20.52,20.52,0,0,1-12.56-3.79c-2.79-2.06-4.56-5.44-5.73-9.58a24.68,24.68,0,0,1-.88-2.68h44.13q.29-1.33.59-3.79a45.17,45.17,0,0,0,.3-5.43A49.06,49.06,0,0,0,287.55,62.23ZM244.31,72q1.19-7.43,5.13-10.92a13.37,13.37,0,0,1,9.13-3.49q6.69,0,9.51,4T270.9,72Z" style="fill:#1d1d1b"/><path d="M333,100.19a4.72,4.72,0,0,1-1.41.3h-1.26a3.61,3.61,0,0,1-2.6-1.34q-1.26-1.33-1.26-4.75V12.23H304.63V93.51a45.88,45.88,0,0,0,1,10.18,21.13,21.13,0,0,0,3.34,7.73,15.39,15.39,0,0,0,6.17,5,22.59,22.59,0,0,0,9.51,1.78,35.27,35.27,0,0,0,6.46-.52,23.58,23.58,0,0,0,4.53-1.26Z" style="fill:#1d1d1b"/><path d="M411.6,63.13A36,36,0,0,0,403.66,51a34.55,34.55,0,0,0-11.44-7.51,35.76,35.76,0,0,0-13.45-2.6,36.3,36.3,0,0,0-13.52,2.6A34.31,34.31,0,0,0,353.73,51a36,36,0,0,0-8,12.11,42.67,42.67,0,0,0-3,16.41,49.06,49.06,0,0,0,.73,8.62,37.86,37.86,0,0,0,2.24,7.8,36,36,0,0,0,8,12.11,34.41,34.41,0,0,0,11.52,7.5,36.33,36.33,0,0,0,13.52,2.6,35.78,35.78,0,0,0,13.45-2.6,34.66,34.66,0,0,0,11.44-7.5A36.09,36.09,0,0,0,411.6,96a37.87,37.87,0,0,0,2.24-7.8,49,49,0,0,0,.74-8.62A42.67,42.67,0,0,0,411.6,63.13ZM388.87,94.84a11.93,11.93,0,0,1-20.28,0,22.33,22.33,0,0,1-2.51-6.68,40.47,40.47,0,0,1-.83-8.62q0-9.66,3.34-15.3a11.92,11.92,0,0,1,20.28,0q3.42,5.65,3.42,15.3a40.09,40.09,0,0,1-.85,8.62A22.19,22.19,0,0,1,388.87,94.84Z" style="fill:#1d1d1b"/><path d="M490.58,48.79q-5.42-7.87-17.46-7.88a25.5,25.5,0,0,0-13.22,3.34,59.25,59.25,0,0,0-10.4,7.81h-.6l-1.48-9.37H429.58v73.7h21.84V66.62A41.83,41.83,0,0,1,458,61.34a13.18,13.18,0,0,1,7.13-1.86q4.75,0,6.91,3t2.15,11v42.94H496V70.63Q496,56.66,490.58,48.79Z" style="fill:#1d1d1b"/><circle cx="119.36" cy="28.98" r="11.93" style="fill:#e95a0c"/></svg>